<svg xmlns="http://www.w3.org/2000/svg" xmlns:xlink="http://www.w3.org/1999/xlink" width="1366" zoomAndPan="magnify" viewBox="0 0 1024.5 576" height="768" preserveAspectRatio="xMidYMid meet" version="1.0"><defs><clipPath id="af9513d56c"><path d="M 206 0.140625 L 210 0.140625 L 210 575.859375 L 206 575.859375 Z M 206 0.140625 " clip-rule="nonzero"/></clipPath><clipPath id="f97d9de388"><path d="M 187 0.140625 L 191 0.140625 L 191 575.859375 L 187 575.859375 Z M 187 0.140625 " clip-rule="nonzero"/></clipPath><clipPath id="4faad04655"><path d="M 833 0.140625 L 837 0.140625 L 837 575.859375 L 833 575.859375 Z M 833 0.140625 " clip-rule="nonzero"/></clipPath><clipPath id="e18ccf0ef3"><path d="M 814 0.140625 L 818 0.140625 L 818 575.859375 L 814 575.859375 Z M 814 0.140625 " clip-rule="nonzero"/></clipPath><clipPath id="ba50beeb70"><path d="M 83.585938 17.003906 L 102.324219 17.003906 L 102.324219 79.226562 L 83.585938 79.226562 Z M 83.585938 17.003906 " clip-rule="nonzero"/></clipPath><clipPath id="1ead518e03"><path d="M 83.585938 112.960938 L 102.324219 112.960938 L 102.324219 175.179688 L 83.585938 175.179688 Z M 83.585938 112.960938 " clip-rule="nonzero"/></clipPath><clipPath id="eb5dec740b"><path d="M 83.585938 208.914062 L 102.324219 208.914062 L 102.324219 271.132812 L 83.585938 271.132812 Z M 83.585938 208.914062 " clip-rule="nonzero"/></clipPath><clipPath id="74f0d69e2f"><path d="M 83.585938 304.867188 L 102.324219 304.867188 L 102.324219 367.085938 L 83.585938 367.085938 Z M 83.585938 304.867188 " clip-rule="nonzero"/></clipPath><clipPath id="13164618cf"><path d="M 83.585938 400.820312 L 102.324219 400.820312 L 102.324219 463.042969 L 83.585938 463.042969 Z M 83.585938 400.820312 " clip-rule="nonzero"/></clipPath><clipPath id="fba8cc2cf5"><path d="M 83.585938 496.773438 L 102.324219 496.773438 L 102.324219 558.996094 L 83.585938 558.996094 Z M 83.585938 496.773438 " clip-rule="nonzero"/></clipPath><clipPath id="a867fb96cf"><path d="M 921.289062 17.003906 L 940.03125 17.003906 L 940.03125 79.226562 L 921.289062 79.226562 Z M 921.289062 17.003906 " clip-rule="nonzero"/></clipPath><clipPath id="ba7e5de56c"><path d="M 921.289062 112.960938 L 940.03125 112.960938 L 940.03125 175.179688 L 921.289062 175.179688 Z M 921.289062 112.960938 " clip-rule="nonzero"/></clipPath><clipPath id="a5a2c36b59"><path d="M 921.289062 208.914062 L 940.03125 208.914062 L 940.03125 271.132812 L 921.289062 271.132812 Z M 921.289062 208.914062 " clip-rule="nonzero"/></clipPath><clipPath id="503a958599"><path d="M 921.289062 304.867188 L 940.03125 304.867188 L 940.03125 367.085938 L 921.289062 367.085938 Z M 921.289062 304.867188 " clip-rule="nonzero"/></clipPath><clipPath id="435273a5ea"><path d="M 921.289062 400.820312 L 940.03125 400.820312 L 940.03125 463.042969 L 921.289062 463.042969 Z M 921.289062 400.820312 " clip-rule="nonzero"/></clipPath><clipPath id="36b03a3b5c"><path d="M 921.289062 496.773438 L 940.03125 496.773438 L 940.03125 558.996094 L 921.289062 558.996094 Z M 921.289062 496.773438 " clip-rule="nonzero"/></clipPath></defs><g clip-path="url(#af9513d56c)"><path stroke-linecap="butt" transform="matrix(0, -0.749634, 0.749634, 0, 206.887477, 575.859508)" fill="none" stroke-linejoin="miter" d="M 0.000177683 1.999964 L 767.999844 1.999964 " stroke="#000000" stroke-width="4" stroke-opacity="1" stroke-miterlimit="4"/></g><g clip-path="url(#f97d9de388)"><path stroke-linecap="butt" transform="matrix(0, -0.749634, 0.749634, 0, 187.408529, 575.859508)" fill="none" stroke-linejoin="miter" d="M 0.000177683 1.997936 L 767.999844 1.997936 " stroke="#000000" stroke-width="4" stroke-opacity="1" stroke-miterlimit="4"/></g><g clip-path="url(#4faad04655)"><path stroke-linecap="butt" transform="matrix(0, -0.749634, 0.749634, 0, 833.581598, 575.859508)" fill="none" stroke-linejoin="miter" d="M 0.000177683 2.001555 L 767.999844 2.001555 " stroke="#000000" stroke-width="4" stroke-opacity="1" stroke-miterlimit="4"/></g><g clip-path="url(#e18ccf0ef3)"><path stroke-linecap="butt" transform="matrix(0, -0.749634, 0.749634, 0, 814.102649, 575.859508)" fill="none" stroke-linejoin="miter" d="M 0.000177683 1.999527 L 767.999844 1.999527 " stroke="#000000" stroke-width="4" stroke-opacity="1" stroke-miterlimit="4"/></g><g clip-path="url(#ba50beeb70)"><path fill="#efcf4d" d="M 83.585938 17.003906 L 102.324219 17.003906 L 102.324219 79.230469 L 83.585938 79.230469 Z M 83.585938 17.003906 " fill-opacity="1" fill-rule="nonzero"/></g><g clip-path="url(#1ead518e03)"><path fill="#efcf4d" d="M 83.585938 112.960938 L 102.324219 112.960938 L 102.324219 175.1875 L 83.585938 175.1875 Z M 83.585938 112.960938 " fill-opacity="1" fill-rule="nonzero"/></g><g clip-path="url(#eb5dec740b)"><path fill="#efcf4d" d="M 83.585938 208.914062 L 102.324219 208.914062 L 102.324219 271.140625 L 83.585938 271.140625 Z M 83.585938 208.914062 " fill-opacity="1" fill-rule="nonzero"/></g><g clip-path="url(#74f0d69e2f)"><path fill="#efcf4d" d="M 83.585938 304.867188 L 102.324219 304.867188 L 102.324219 367.09375 L 83.585938 367.09375 Z M 83.585938 304.867188 " fill-opacity="1" fill-rule="nonzero"/></g><g clip-path="url(#13164618cf)"><path fill="#efcf4d" d="M 83.585938 400.820312 L 102.324219 400.820312 L 102.324219 463.046875 L 83.585938 463.046875 Z M 83.585938 400.820312 " fill-opacity="1" fill-rule="nonzero"/></g><g clip-path="url(#fba8cc2cf5)"><path fill="#efcf4d" d="M 83.585938 496.773438 L 102.324219 496.773438 L 102.324219 559 L 83.585938 559 Z M 83.585938 496.773438 " fill-opacity="1" fill-rule="nonzero"/></g><g clip-path="url(#a867fb96cf)"><path fill="#efcf4d" d="M 921.289062 17.003906 L 940.03125 17.003906 L 940.03125 79.230469 L 921.289062 79.230469 Z M 921.289062 17.003906 " fill-opacity="1" fill-rule="nonzero"/></g><g clip-path="url(#ba7e5de56c)"><path fill="#efcf4d" d="M 921.289062 112.960938 L 940.03125 112.960938 L 940.03125 175.1875 L 921.289062 175.1875 Z M 921.289062 112.960938 " fill-opacity="1" fill-rule="nonzero"/></g><g clip-path="url(#a5a2c36b59)"><path fill="#efcf4d" d="M 921.289062 208.914062 L 940.03125 208.914062 L 940.03125 271.140625 L 921.289062 271.140625 Z M 921.289062 208.914062 " fill-opacity="1" fill-rule="nonzero"/></g><g clip-path="url(#503a958599)"><path fill="#efcf4d" d="M 921.289062 304.867188 L 940.03125 304.867188 L 940.03125 367.09375 L 921.289062 367.09375 Z M 921.289062 304.867188 " fill-opacity="1" fill-rule="nonzero"/></g><g clip-path="url(#435273a5ea)"><path fill="#efcf4d" d="M 921.289062 400.820312 L 940.03125 400.820312 L 940.03125 463.046875 L 921.289062 463.046875 Z M 921.289062 400.820312 " fill-opacity="1" fill-rule="nonzero"/></g><g clip-path="url(#36b03a3b5c)"><path fill="#efcf4d" d="M 921.289062 496.773438 L 940.03125 496.773438 L 940.03125 559 L 921.289062 559 Z M 921.289062 496.773438 " fill-opacity="1" fill-rule="nonzero"/></g></svg>